<svg viewBox="0 0 400 400" xmlns="http://www.w3.org/2000/svg">
  <!-- Background -->
  <rect width="400" height="400" fill="#1f2037"/>
  
  <!-- Hexagonal frame -->
  <polygon points="200,60 280,110 280,210 200,260 120,210 120,110" 
           fill="none" stroke="#7c7f9f" stroke-width="3"/>
  
  <!-- Inner hexagon -->
  <polygon points="200,90 250,120 250,180 200,210 150,180 150,120" 
           fill="none" stroke="#4a4d6e" stroke-width="2"/>
  
  <!-- Circuit board pattern radiating from center -->
  <g stroke="#6b6e8a" stroke-width="2" fill="none">
    <!-- Horizontal lines -->
    <line x1="150" y1="135" x2="130" y2="135"/>
    <line x1="250" y1="135" x2="270" y2="135"/>
    <line x1="150" y1="165" x2="130" y2="165"/>
    <line x1="250" y1="165" x2="270" y2="165"/>
    
    <!-- Vertical lines -->
    <line x1="175" y1="120" x2="175" y2="95"/>
    <line x1="225" y1="120" x2="225" y2="95"/>
    <line x1="175" y1="180" x2="175" y2="205"/>
    <line x1="225" y1="180" x2="225" y2="205"/>
  </g>
  
  <!-- Circuit nodes -->
  <g fill="#7c7f9f">
    <circle cx="130" cy="135" r="3"/>
    <circle cx="270" cy="135" r="3"/>
    <circle cx="130" cy="165" r="3"/>
    <circle cx="270" cy="165" r="3"/>
    <circle cx="175" cy="95" r="3"/>
    <circle cx="225" cy="95" r="3"/>
    <circle cx="175" cy="205" r="3"/>
    <circle cx="225" cy="205" r="3"/>
  </g>
  
  <!-- Central monogram BKM -->
  <text x="200" y="170" font-family="'Courier New', monospace" font-size="56" 
        font-weight="bold" fill="#e8e9f3" text-anchor="middle">BKM</text>
  
  <!-- Glowing effect on corners -->
  <g opacity="0.6">
    <circle cx="200" cy="60" r="4" fill="#9ca0c0">
      <animate attributeName="opacity" values="0.3;1;0.3" dur="2s" repeatCount="indefinite"/>
    </circle>
    <circle cx="280" cy="210" r="4" fill="#9ca0c0">
      <animate attributeName="opacity" values="1;0.3;1" dur="2s" repeatCount="indefinite"/>
    </circle>
    <circle cx="120" cy="210" r="4" fill="#9ca0c0">
      <animate attributeName="opacity" values="0.6;1;0.6" dur="2s" repeatCount="indefinite"/>
    </circle>
  </g>
</svg>